<?xml version="1.0" standalone="no"?>
<!DOCTYPE svg PUBLIC "-//W3C//DTD SVG 20010904//EN"
 "http://www.w3.org/TR/2001/REC-SVG-20010904/DTD/svg10.dtd">
<svg version="1.0" xmlns="http://www.w3.org/2000/svg"
 width="233.000000pt" height="225.000000pt" viewBox="0 0 233.000000 225.000000"
 preserveAspectRatio="xMidYMid meet">

<g transform="translate(0.000000,225.000000) scale(0.100000,-0.100000)"
fill="#000000" stroke="none">
<path d="M1013 2040 c-327 -46 -627 -287 -740 -594 -117 -318 -52 -677 166
-929 331 -382 897 -429 1298 -107 132 106 261 316 304 495 29 119 31 296 5
410 -66 289 -235 504 -497 633 -57 29 -139 61 -183 72 -90 23 -263 33 -353 20z
m395 -332 c96 -33 179 -76 238 -123 l27 -22 -53 -69 c-82 -107 -73 -101 -117
-67 -91 71 -183 107 -298 118 -312 30 -571 -235 -525 -539 23 -154 122 -284
267 -354 l78 -37 135 0 c133 0 136 1 215 35 l80 35 5 190 5 190 98 3 97 3 0
-251 0 -251 -62 -39 c-229 -145 -559 -169 -783 -58 -72 36 -184 129 -231 191
-105 140 -139 242 -138 417 0 108 4 136 27 205 59 176 206 334 383 408 103 44
186 57 325 53 111 -3 136 -7 227 -38z m-137 -388 c35 -11 76 -30 91 -42 l27
-23 -37 -43 -38 -44 -48 26 c-123 65 -246 1 -246 -129 0 -111 98 -180 204
-145 l36 12 0 69 0 69 60 0 61 0 -3 -107 -3 -108 -45 -22 c-71 -34 -164 -48
-233 -34 -191 40 -283 254 -176 414 72 109 209 151 350 107z"/>
</g>
</svg>
